G75*
%MOIN*%
%OFA0B0*%
%FSLAX25Y25*%
%IPPOS*%
%LPD*%
%AMOC8*
5,1,8,0,0,1.08239X$1,22.5*
%
%ADD10R,0.06000X0.17000*%
%ADD11R,0.64000X0.56000*%
%ADD12C,0.07874*%
%ADD13OC8,0.05200*%
%ADD14C,0.06500*%
%ADD15R,0.06500X0.06500*%
%ADD16R,0.03937X0.04331*%
%ADD17OC8,0.05937*%
%ADD18C,0.03200*%
%ADD19R,0.03962X0.03962*%
%ADD20C,0.01000*%
%ADD21C,0.01600*%
%ADD22C,0.05000*%
%ADD23C,0.02400*%
%ADD24C,0.07000*%
%ADD25C,0.07600*%
D10*
X0083029Y0195307D03*
X0093029Y0195307D03*
X0103029Y0195307D03*
D11*
X0093029Y0150807D03*
D12*
X0053452Y0198602D02*
X0045578Y0198602D01*
X0036523Y0214350D02*
X0036523Y0222224D01*
X0061326Y0222224D02*
X0061326Y0214350D01*
D13*
X0226996Y0213444D03*
X0236996Y0213444D03*
X0236996Y0198444D03*
X0226996Y0198444D03*
X0226996Y0228444D03*
X0236996Y0228444D03*
D14*
X0093066Y0211423D03*
D15*
X0103066Y0211423D03*
D16*
X0080024Y0208251D03*
X0080024Y0214944D03*
D17*
X0076028Y0246243D03*
X0076028Y0256243D03*
X0066028Y0256243D03*
X0066028Y0246243D03*
X0056028Y0246243D03*
X0056028Y0256243D03*
X0046028Y0256243D03*
X0046028Y0246243D03*
X0036028Y0246243D03*
X0036028Y0256243D03*
X0086028Y0256243D03*
X0086028Y0246243D03*
X0096028Y0246243D03*
X0096028Y0256243D03*
X0106028Y0256243D03*
X0106028Y0246243D03*
X0116028Y0246243D03*
X0116028Y0256243D03*
X0126028Y0256243D03*
X0136028Y0256243D03*
X0136028Y0246243D03*
X0126028Y0246243D03*
X0146028Y0246243D03*
X0146028Y0256243D03*
X0156028Y0256243D03*
X0156028Y0246243D03*
X0166028Y0246243D03*
X0166028Y0256243D03*
X0176028Y0256243D03*
X0186028Y0256243D03*
X0186028Y0246243D03*
X0176028Y0246243D03*
X0196028Y0246243D03*
X0196028Y0256243D03*
X0206028Y0256243D03*
X0206028Y0246243D03*
X0216028Y0246243D03*
X0216028Y0256243D03*
X0226028Y0256243D03*
X0226028Y0246243D03*
X0176043Y0053049D03*
X0166043Y0053049D03*
X0156043Y0053049D03*
X0146043Y0053049D03*
D18*
X0176043Y0053049D02*
X0179793Y0053049D01*
X0187293Y0060549D01*
X0187293Y0153049D01*
X0181668Y0158674D01*
X0181668Y0202424D01*
X0176043Y0208049D01*
X0103066Y0211423D02*
X0103066Y0195344D01*
X0103029Y0195307D01*
X0093066Y0195344D02*
X0093029Y0195307D01*
X0093066Y0195344D02*
X0093066Y0211423D01*
X0089545Y0214944D01*
X0080024Y0214944D01*
X0080005Y0214924D02*
X0071668Y0214924D01*
X0080024Y0208251D02*
X0080024Y0198312D01*
D19*
X0071668Y0214924D03*
X0061089Y0218049D03*
X0055418Y0229924D03*
X0093543Y0233674D03*
X0136043Y0233674D03*
X0134168Y0195549D03*
X0155418Y0194924D03*
X0176043Y0208049D03*
X0072918Y0095549D03*
X0026668Y0099299D03*
X0017918Y0128049D03*
X0142454Y0068186D03*
D20*
X0145418Y0053674D02*
X0059168Y0053674D01*
X0017918Y0096799D01*
X0017918Y0128049D01*
X0026668Y0099299D02*
X0026668Y0098674D01*
X0062918Y0060549D01*
X0146668Y0060549D01*
X0156043Y0053049D01*
X0146043Y0053049D02*
X0145418Y0053674D01*
X0136043Y0233674D02*
X0093543Y0233674D01*
X0061043Y0250549D02*
X0061043Y0251174D01*
D21*
X0072918Y0251174D01*
X0076028Y0248064D01*
X0076028Y0246243D01*
X0072918Y0251174D02*
X0092918Y0251174D01*
X0129793Y0251174D01*
X0126028Y0254939D01*
X0126028Y0256243D01*
X0129793Y0251174D02*
X0152293Y0251174D01*
X0221043Y0251174D01*
X0225974Y0246243D01*
X0226028Y0246243D01*
X0156028Y0246243D02*
X0156028Y0247439D01*
X0152293Y0251174D01*
X0155418Y0194924D02*
X0155418Y0083049D01*
X0142454Y0068186D01*
X0137293Y0096174D02*
X0073543Y0096174D01*
X0072918Y0095549D01*
X0137293Y0096174D02*
X0144793Y0103674D01*
X0144793Y0170549D01*
X0137918Y0177424D01*
X0137918Y0183674D01*
X0134168Y0187424D01*
X0134168Y0195549D01*
X0092918Y0251174D02*
X0096028Y0254284D01*
X0096028Y0256243D01*
X0071668Y0221799D02*
X0071668Y0214924D01*
X0071668Y0221799D02*
X0061043Y0232424D01*
X0061043Y0250549D01*
X0061043Y0251174D02*
X0059793Y0251174D01*
X0056028Y0254939D01*
X0056028Y0256243D01*
X0051043Y0251799D02*
X0051043Y0234924D01*
X0055418Y0229924D01*
X0044793Y0229924D02*
X0041043Y0234924D01*
X0041043Y0255549D01*
X0036599Y0256243D01*
X0035418Y0256174D02*
X0031195Y0252247D01*
X0031195Y0234122D01*
X0037293Y0229924D01*
X0051043Y0251799D02*
X0046599Y0256243D01*
X0046028Y0256243D01*
D22*
X0036599Y0256243D01*
X0036028Y0256243D01*
X0037293Y0229924D02*
X0044793Y0229924D01*
X0055418Y0229924D01*
X0036523Y0218287D02*
X0036523Y0211594D01*
X0049515Y0198602D01*
X0080024Y0198312D02*
X0083029Y0195307D01*
D23*
X0079601Y0198674D02*
X0080024Y0208251D01*
X0080005Y0214924D02*
X0080024Y0214944D01*
D24*
X0061326Y0214641D02*
X0061326Y0218287D01*
X0061089Y0218049D01*
D25*
X0061326Y0214641D02*
X0067293Y0198674D01*
X0079601Y0198674D01*
M02*
