G75*
%MOIN*%
%OFA0B0*%
%FSLAX25Y25*%
%IPPOS*%
%LPD*%
%AMOC8*
5,1,8,0,0,1.08239X$1,22.5*
%
%ADD10C,0.00000*%
D10*
X0014792Y0044673D02*
X0247502Y0044673D01*
X0247502Y0044672D02*
X0247788Y0044676D01*
X0248074Y0044687D01*
X0248360Y0044705D01*
X0248645Y0044730D01*
X0248930Y0044762D01*
X0249214Y0044801D01*
X0249496Y0044847D01*
X0249778Y0044900D01*
X0250058Y0044960D01*
X0250336Y0045026D01*
X0250613Y0045100D01*
X0250888Y0045180D01*
X0251161Y0045267D01*
X0251432Y0045360D01*
X0251700Y0045460D01*
X0251966Y0045567D01*
X0252229Y0045680D01*
X0252489Y0045800D01*
X0252746Y0045925D01*
X0253000Y0046058D01*
X0253251Y0046196D01*
X0253498Y0046340D01*
X0253742Y0046491D01*
X0253982Y0046647D01*
X0254218Y0046809D01*
X0254450Y0046977D01*
X0254678Y0047151D01*
X0254901Y0047330D01*
X0255120Y0047514D01*
X0255335Y0047704D01*
X0255544Y0047899D01*
X0255749Y0048099D01*
X0255949Y0048304D01*
X0256144Y0048514D01*
X0256334Y0048728D01*
X0256518Y0048947D01*
X0256697Y0049171D01*
X0256870Y0049399D01*
X0257038Y0049631D01*
X0257200Y0049867D01*
X0257357Y0050107D01*
X0257507Y0050351D01*
X0257651Y0050598D01*
X0257789Y0050849D01*
X0257921Y0051103D01*
X0258047Y0051361D01*
X0258166Y0051621D01*
X0258279Y0051884D01*
X0258386Y0052150D01*
X0258486Y0052418D01*
X0258579Y0052689D01*
X0258666Y0052962D01*
X0258746Y0053237D01*
X0258819Y0053514D01*
X0258885Y0053792D01*
X0258945Y0054072D01*
X0258998Y0054354D01*
X0259044Y0054636D01*
X0259082Y0054920D01*
X0259114Y0055205D01*
X0259139Y0055490D01*
X0259157Y0055776D01*
X0259168Y0056062D01*
X0259172Y0056348D01*
X0259172Y0056349D02*
X0259172Y0253260D01*
X0259173Y0253226D02*
X0259171Y0253508D01*
X0259161Y0253791D01*
X0259145Y0254073D01*
X0259123Y0254354D01*
X0259093Y0254635D01*
X0259056Y0254915D01*
X0259013Y0255194D01*
X0258963Y0255472D01*
X0258906Y0255748D01*
X0258843Y0256023D01*
X0258773Y0256297D01*
X0258696Y0256568D01*
X0258612Y0256838D01*
X0258523Y0257106D01*
X0258426Y0257371D01*
X0258324Y0257634D01*
X0258214Y0257895D01*
X0258099Y0258152D01*
X0257977Y0258407D01*
X0257850Y0258659D01*
X0257716Y0258907D01*
X0257576Y0259153D01*
X0257430Y0259394D01*
X0257279Y0259633D01*
X0257121Y0259867D01*
X0256958Y0260098D01*
X0256790Y0260324D01*
X0256616Y0260546D01*
X0256436Y0260765D01*
X0256252Y0260978D01*
X0256062Y0261187D01*
X0255867Y0261392D01*
X0255668Y0261591D01*
X0255463Y0261786D01*
X0255254Y0261976D01*
X0255041Y0262160D01*
X0254822Y0262340D01*
X0254600Y0262514D01*
X0254374Y0262682D01*
X0254143Y0262845D01*
X0253909Y0263003D01*
X0253670Y0263154D01*
X0253429Y0263300D01*
X0253183Y0263440D01*
X0252935Y0263574D01*
X0252683Y0263701D01*
X0252428Y0263823D01*
X0252171Y0263938D01*
X0251910Y0264048D01*
X0251647Y0264150D01*
X0251382Y0264247D01*
X0251114Y0264337D01*
X0250844Y0264420D01*
X0250573Y0264497D01*
X0250299Y0264567D01*
X0250024Y0264630D01*
X0249748Y0264687D01*
X0249470Y0264737D01*
X0249191Y0264780D01*
X0248911Y0264817D01*
X0248630Y0264847D01*
X0248349Y0264869D01*
X0248067Y0264885D01*
X0247784Y0264895D01*
X0247502Y0264897D01*
X0014792Y0264897D01*
X0014510Y0264895D01*
X0014227Y0264885D01*
X0013945Y0264869D01*
X0013664Y0264847D01*
X0013383Y0264817D01*
X0013103Y0264780D01*
X0012824Y0264737D01*
X0012546Y0264687D01*
X0012270Y0264630D01*
X0011995Y0264567D01*
X0011721Y0264497D01*
X0011450Y0264420D01*
X0011180Y0264336D01*
X0010912Y0264247D01*
X0010647Y0264150D01*
X0010384Y0264048D01*
X0010123Y0263938D01*
X0009866Y0263823D01*
X0009611Y0263701D01*
X0009359Y0263574D01*
X0009111Y0263440D01*
X0008865Y0263300D01*
X0008624Y0263154D01*
X0008385Y0263003D01*
X0008151Y0262845D01*
X0007920Y0262682D01*
X0007694Y0262514D01*
X0007472Y0262340D01*
X0007253Y0262160D01*
X0007040Y0261976D01*
X0006831Y0261786D01*
X0006626Y0261591D01*
X0006427Y0261392D01*
X0006232Y0261187D01*
X0006042Y0260978D01*
X0005858Y0260765D01*
X0005678Y0260546D01*
X0005504Y0260324D01*
X0005336Y0260098D01*
X0005173Y0259867D01*
X0005015Y0259633D01*
X0004864Y0259394D01*
X0004718Y0259153D01*
X0004578Y0258907D01*
X0004444Y0258659D01*
X0004317Y0258407D01*
X0004195Y0258152D01*
X0004080Y0257895D01*
X0003970Y0257634D01*
X0003868Y0257371D01*
X0003771Y0257106D01*
X0003682Y0256838D01*
X0003598Y0256568D01*
X0003521Y0256297D01*
X0003451Y0256023D01*
X0003388Y0255748D01*
X0003331Y0255472D01*
X0003281Y0255194D01*
X0003238Y0254915D01*
X0003201Y0254635D01*
X0003171Y0254354D01*
X0003149Y0254073D01*
X0003133Y0253791D01*
X0003123Y0253508D01*
X0003121Y0253226D01*
X0003122Y0253247D02*
X0003122Y0056349D01*
X0003121Y0056349D02*
X0003125Y0056063D01*
X0003136Y0055777D01*
X0003154Y0055491D01*
X0003179Y0055206D01*
X0003211Y0054921D01*
X0003249Y0054637D01*
X0003295Y0054355D01*
X0003348Y0054073D01*
X0003408Y0053793D01*
X0003474Y0053515D01*
X0003547Y0053238D01*
X0003627Y0052963D01*
X0003714Y0052690D01*
X0003807Y0052419D01*
X0003907Y0052151D01*
X0004014Y0051885D01*
X0004127Y0051622D01*
X0004246Y0051362D01*
X0004372Y0051104D01*
X0004504Y0050850D01*
X0004642Y0050599D01*
X0004786Y0050352D01*
X0004936Y0050108D01*
X0005093Y0049868D01*
X0005255Y0049632D01*
X0005423Y0049400D01*
X0005596Y0049172D01*
X0005775Y0048948D01*
X0005959Y0048729D01*
X0006149Y0048515D01*
X0006344Y0048305D01*
X0006544Y0048100D01*
X0006749Y0047900D01*
X0006958Y0047705D01*
X0007173Y0047515D01*
X0007392Y0047331D01*
X0007615Y0047152D01*
X0007843Y0046978D01*
X0008075Y0046810D01*
X0008311Y0046648D01*
X0008551Y0046492D01*
X0008795Y0046341D01*
X0009042Y0046197D01*
X0009293Y0046059D01*
X0009547Y0045926D01*
X0009804Y0045801D01*
X0010064Y0045681D01*
X0010327Y0045568D01*
X0010593Y0045461D01*
X0010861Y0045361D01*
X0011132Y0045268D01*
X0011405Y0045181D01*
X0011680Y0045101D01*
X0011957Y0045027D01*
X0012235Y0044961D01*
X0012515Y0044901D01*
X0012797Y0044848D01*
X0013079Y0044802D01*
X0013363Y0044763D01*
X0013648Y0044731D01*
X0013933Y0044706D01*
X0014219Y0044688D01*
X0014505Y0044677D01*
X0014791Y0044673D01*
X0011094Y0058446D02*
X0011096Y0058599D01*
X0011102Y0058753D01*
X0011112Y0058906D01*
X0011126Y0059058D01*
X0011144Y0059211D01*
X0011166Y0059362D01*
X0011191Y0059513D01*
X0011221Y0059664D01*
X0011255Y0059814D01*
X0011292Y0059962D01*
X0011333Y0060110D01*
X0011378Y0060256D01*
X0011427Y0060402D01*
X0011480Y0060546D01*
X0011536Y0060688D01*
X0011596Y0060829D01*
X0011660Y0060969D01*
X0011727Y0061107D01*
X0011798Y0061243D01*
X0011873Y0061377D01*
X0011950Y0061509D01*
X0012032Y0061639D01*
X0012116Y0061767D01*
X0012204Y0061893D01*
X0012295Y0062016D01*
X0012389Y0062137D01*
X0012487Y0062255D01*
X0012587Y0062371D01*
X0012691Y0062484D01*
X0012797Y0062595D01*
X0012906Y0062703D01*
X0013018Y0062808D01*
X0013132Y0062909D01*
X0013250Y0063008D01*
X0013369Y0063104D01*
X0013491Y0063197D01*
X0013616Y0063286D01*
X0013743Y0063373D01*
X0013872Y0063455D01*
X0014003Y0063535D01*
X0014136Y0063611D01*
X0014271Y0063684D01*
X0014408Y0063753D01*
X0014547Y0063818D01*
X0014687Y0063880D01*
X0014829Y0063938D01*
X0014972Y0063993D01*
X0015117Y0064044D01*
X0015263Y0064091D01*
X0015410Y0064134D01*
X0015558Y0064173D01*
X0015707Y0064209D01*
X0015857Y0064240D01*
X0016008Y0064268D01*
X0016159Y0064292D01*
X0016312Y0064312D01*
X0016464Y0064328D01*
X0016617Y0064340D01*
X0016770Y0064348D01*
X0016923Y0064352D01*
X0017077Y0064352D01*
X0017230Y0064348D01*
X0017383Y0064340D01*
X0017536Y0064328D01*
X0017688Y0064312D01*
X0017841Y0064292D01*
X0017992Y0064268D01*
X0018143Y0064240D01*
X0018293Y0064209D01*
X0018442Y0064173D01*
X0018590Y0064134D01*
X0018737Y0064091D01*
X0018883Y0064044D01*
X0019028Y0063993D01*
X0019171Y0063938D01*
X0019313Y0063880D01*
X0019453Y0063818D01*
X0019592Y0063753D01*
X0019729Y0063684D01*
X0019864Y0063611D01*
X0019997Y0063535D01*
X0020128Y0063455D01*
X0020257Y0063373D01*
X0020384Y0063286D01*
X0020509Y0063197D01*
X0020631Y0063104D01*
X0020750Y0063008D01*
X0020868Y0062909D01*
X0020982Y0062808D01*
X0021094Y0062703D01*
X0021203Y0062595D01*
X0021309Y0062484D01*
X0021413Y0062371D01*
X0021513Y0062255D01*
X0021611Y0062137D01*
X0021705Y0062016D01*
X0021796Y0061893D01*
X0021884Y0061767D01*
X0021968Y0061639D01*
X0022050Y0061509D01*
X0022127Y0061377D01*
X0022202Y0061243D01*
X0022273Y0061107D01*
X0022340Y0060969D01*
X0022404Y0060829D01*
X0022464Y0060688D01*
X0022520Y0060546D01*
X0022573Y0060402D01*
X0022622Y0060256D01*
X0022667Y0060110D01*
X0022708Y0059962D01*
X0022745Y0059814D01*
X0022779Y0059664D01*
X0022809Y0059513D01*
X0022834Y0059362D01*
X0022856Y0059211D01*
X0022874Y0059058D01*
X0022888Y0058906D01*
X0022898Y0058753D01*
X0022904Y0058599D01*
X0022906Y0058446D01*
X0022904Y0058293D01*
X0022898Y0058139D01*
X0022888Y0057986D01*
X0022874Y0057834D01*
X0022856Y0057681D01*
X0022834Y0057530D01*
X0022809Y0057379D01*
X0022779Y0057228D01*
X0022745Y0057078D01*
X0022708Y0056930D01*
X0022667Y0056782D01*
X0022622Y0056636D01*
X0022573Y0056490D01*
X0022520Y0056346D01*
X0022464Y0056204D01*
X0022404Y0056063D01*
X0022340Y0055923D01*
X0022273Y0055785D01*
X0022202Y0055649D01*
X0022127Y0055515D01*
X0022050Y0055383D01*
X0021968Y0055253D01*
X0021884Y0055125D01*
X0021796Y0054999D01*
X0021705Y0054876D01*
X0021611Y0054755D01*
X0021513Y0054637D01*
X0021413Y0054521D01*
X0021309Y0054408D01*
X0021203Y0054297D01*
X0021094Y0054189D01*
X0020982Y0054084D01*
X0020868Y0053983D01*
X0020750Y0053884D01*
X0020631Y0053788D01*
X0020509Y0053695D01*
X0020384Y0053606D01*
X0020257Y0053519D01*
X0020128Y0053437D01*
X0019997Y0053357D01*
X0019864Y0053281D01*
X0019729Y0053208D01*
X0019592Y0053139D01*
X0019453Y0053074D01*
X0019313Y0053012D01*
X0019171Y0052954D01*
X0019028Y0052899D01*
X0018883Y0052848D01*
X0018737Y0052801D01*
X0018590Y0052758D01*
X0018442Y0052719D01*
X0018293Y0052683D01*
X0018143Y0052652D01*
X0017992Y0052624D01*
X0017841Y0052600D01*
X0017688Y0052580D01*
X0017536Y0052564D01*
X0017383Y0052552D01*
X0017230Y0052544D01*
X0017077Y0052540D01*
X0016923Y0052540D01*
X0016770Y0052544D01*
X0016617Y0052552D01*
X0016464Y0052564D01*
X0016312Y0052580D01*
X0016159Y0052600D01*
X0016008Y0052624D01*
X0015857Y0052652D01*
X0015707Y0052683D01*
X0015558Y0052719D01*
X0015410Y0052758D01*
X0015263Y0052801D01*
X0015117Y0052848D01*
X0014972Y0052899D01*
X0014829Y0052954D01*
X0014687Y0053012D01*
X0014547Y0053074D01*
X0014408Y0053139D01*
X0014271Y0053208D01*
X0014136Y0053281D01*
X0014003Y0053357D01*
X0013872Y0053437D01*
X0013743Y0053519D01*
X0013616Y0053606D01*
X0013491Y0053695D01*
X0013369Y0053788D01*
X0013250Y0053884D01*
X0013132Y0053983D01*
X0013018Y0054084D01*
X0012906Y0054189D01*
X0012797Y0054297D01*
X0012691Y0054408D01*
X0012587Y0054521D01*
X0012487Y0054637D01*
X0012389Y0054755D01*
X0012295Y0054876D01*
X0012204Y0054999D01*
X0012116Y0055125D01*
X0012032Y0055253D01*
X0011950Y0055383D01*
X0011873Y0055515D01*
X0011798Y0055649D01*
X0011727Y0055785D01*
X0011660Y0055923D01*
X0011596Y0056063D01*
X0011536Y0056204D01*
X0011480Y0056346D01*
X0011427Y0056490D01*
X0011378Y0056636D01*
X0011333Y0056782D01*
X0011292Y0056930D01*
X0011255Y0057078D01*
X0011221Y0057228D01*
X0011191Y0057379D01*
X0011166Y0057530D01*
X0011144Y0057681D01*
X0011126Y0057834D01*
X0011112Y0057986D01*
X0011102Y0058139D01*
X0011096Y0058293D01*
X0011094Y0058446D01*
X0011094Y0251365D02*
X0011096Y0251518D01*
X0011102Y0251672D01*
X0011112Y0251825D01*
X0011126Y0251977D01*
X0011144Y0252130D01*
X0011166Y0252281D01*
X0011191Y0252432D01*
X0011221Y0252583D01*
X0011255Y0252733D01*
X0011292Y0252881D01*
X0011333Y0253029D01*
X0011378Y0253175D01*
X0011427Y0253321D01*
X0011480Y0253465D01*
X0011536Y0253607D01*
X0011596Y0253748D01*
X0011660Y0253888D01*
X0011727Y0254026D01*
X0011798Y0254162D01*
X0011873Y0254296D01*
X0011950Y0254428D01*
X0012032Y0254558D01*
X0012116Y0254686D01*
X0012204Y0254812D01*
X0012295Y0254935D01*
X0012389Y0255056D01*
X0012487Y0255174D01*
X0012587Y0255290D01*
X0012691Y0255403D01*
X0012797Y0255514D01*
X0012906Y0255622D01*
X0013018Y0255727D01*
X0013132Y0255828D01*
X0013250Y0255927D01*
X0013369Y0256023D01*
X0013491Y0256116D01*
X0013616Y0256205D01*
X0013743Y0256292D01*
X0013872Y0256374D01*
X0014003Y0256454D01*
X0014136Y0256530D01*
X0014271Y0256603D01*
X0014408Y0256672D01*
X0014547Y0256737D01*
X0014687Y0256799D01*
X0014829Y0256857D01*
X0014972Y0256912D01*
X0015117Y0256963D01*
X0015263Y0257010D01*
X0015410Y0257053D01*
X0015558Y0257092D01*
X0015707Y0257128D01*
X0015857Y0257159D01*
X0016008Y0257187D01*
X0016159Y0257211D01*
X0016312Y0257231D01*
X0016464Y0257247D01*
X0016617Y0257259D01*
X0016770Y0257267D01*
X0016923Y0257271D01*
X0017077Y0257271D01*
X0017230Y0257267D01*
X0017383Y0257259D01*
X0017536Y0257247D01*
X0017688Y0257231D01*
X0017841Y0257211D01*
X0017992Y0257187D01*
X0018143Y0257159D01*
X0018293Y0257128D01*
X0018442Y0257092D01*
X0018590Y0257053D01*
X0018737Y0257010D01*
X0018883Y0256963D01*
X0019028Y0256912D01*
X0019171Y0256857D01*
X0019313Y0256799D01*
X0019453Y0256737D01*
X0019592Y0256672D01*
X0019729Y0256603D01*
X0019864Y0256530D01*
X0019997Y0256454D01*
X0020128Y0256374D01*
X0020257Y0256292D01*
X0020384Y0256205D01*
X0020509Y0256116D01*
X0020631Y0256023D01*
X0020750Y0255927D01*
X0020868Y0255828D01*
X0020982Y0255727D01*
X0021094Y0255622D01*
X0021203Y0255514D01*
X0021309Y0255403D01*
X0021413Y0255290D01*
X0021513Y0255174D01*
X0021611Y0255056D01*
X0021705Y0254935D01*
X0021796Y0254812D01*
X0021884Y0254686D01*
X0021968Y0254558D01*
X0022050Y0254428D01*
X0022127Y0254296D01*
X0022202Y0254162D01*
X0022273Y0254026D01*
X0022340Y0253888D01*
X0022404Y0253748D01*
X0022464Y0253607D01*
X0022520Y0253465D01*
X0022573Y0253321D01*
X0022622Y0253175D01*
X0022667Y0253029D01*
X0022708Y0252881D01*
X0022745Y0252733D01*
X0022779Y0252583D01*
X0022809Y0252432D01*
X0022834Y0252281D01*
X0022856Y0252130D01*
X0022874Y0251977D01*
X0022888Y0251825D01*
X0022898Y0251672D01*
X0022904Y0251518D01*
X0022906Y0251365D01*
X0022904Y0251212D01*
X0022898Y0251058D01*
X0022888Y0250905D01*
X0022874Y0250753D01*
X0022856Y0250600D01*
X0022834Y0250449D01*
X0022809Y0250298D01*
X0022779Y0250147D01*
X0022745Y0249997D01*
X0022708Y0249849D01*
X0022667Y0249701D01*
X0022622Y0249555D01*
X0022573Y0249409D01*
X0022520Y0249265D01*
X0022464Y0249123D01*
X0022404Y0248982D01*
X0022340Y0248842D01*
X0022273Y0248704D01*
X0022202Y0248568D01*
X0022127Y0248434D01*
X0022050Y0248302D01*
X0021968Y0248172D01*
X0021884Y0248044D01*
X0021796Y0247918D01*
X0021705Y0247795D01*
X0021611Y0247674D01*
X0021513Y0247556D01*
X0021413Y0247440D01*
X0021309Y0247327D01*
X0021203Y0247216D01*
X0021094Y0247108D01*
X0020982Y0247003D01*
X0020868Y0246902D01*
X0020750Y0246803D01*
X0020631Y0246707D01*
X0020509Y0246614D01*
X0020384Y0246525D01*
X0020257Y0246438D01*
X0020128Y0246356D01*
X0019997Y0246276D01*
X0019864Y0246200D01*
X0019729Y0246127D01*
X0019592Y0246058D01*
X0019453Y0245993D01*
X0019313Y0245931D01*
X0019171Y0245873D01*
X0019028Y0245818D01*
X0018883Y0245767D01*
X0018737Y0245720D01*
X0018590Y0245677D01*
X0018442Y0245638D01*
X0018293Y0245602D01*
X0018143Y0245571D01*
X0017992Y0245543D01*
X0017841Y0245519D01*
X0017688Y0245499D01*
X0017536Y0245483D01*
X0017383Y0245471D01*
X0017230Y0245463D01*
X0017077Y0245459D01*
X0016923Y0245459D01*
X0016770Y0245463D01*
X0016617Y0245471D01*
X0016464Y0245483D01*
X0016312Y0245499D01*
X0016159Y0245519D01*
X0016008Y0245543D01*
X0015857Y0245571D01*
X0015707Y0245602D01*
X0015558Y0245638D01*
X0015410Y0245677D01*
X0015263Y0245720D01*
X0015117Y0245767D01*
X0014972Y0245818D01*
X0014829Y0245873D01*
X0014687Y0245931D01*
X0014547Y0245993D01*
X0014408Y0246058D01*
X0014271Y0246127D01*
X0014136Y0246200D01*
X0014003Y0246276D01*
X0013872Y0246356D01*
X0013743Y0246438D01*
X0013616Y0246525D01*
X0013491Y0246614D01*
X0013369Y0246707D01*
X0013250Y0246803D01*
X0013132Y0246902D01*
X0013018Y0247003D01*
X0012906Y0247108D01*
X0012797Y0247216D01*
X0012691Y0247327D01*
X0012587Y0247440D01*
X0012487Y0247556D01*
X0012389Y0247674D01*
X0012295Y0247795D01*
X0012204Y0247918D01*
X0012116Y0248044D01*
X0012032Y0248172D01*
X0011950Y0248302D01*
X0011873Y0248434D01*
X0011798Y0248568D01*
X0011727Y0248704D01*
X0011660Y0248842D01*
X0011596Y0248982D01*
X0011536Y0249123D01*
X0011480Y0249265D01*
X0011427Y0249409D01*
X0011378Y0249555D01*
X0011333Y0249701D01*
X0011292Y0249849D01*
X0011255Y0249997D01*
X0011221Y0250147D01*
X0011191Y0250298D01*
X0011166Y0250449D01*
X0011144Y0250600D01*
X0011126Y0250753D01*
X0011112Y0250905D01*
X0011102Y0251058D01*
X0011096Y0251212D01*
X0011094Y0251365D01*
X0239364Y0251365D02*
X0239366Y0251518D01*
X0239372Y0251672D01*
X0239382Y0251825D01*
X0239396Y0251977D01*
X0239414Y0252130D01*
X0239436Y0252281D01*
X0239461Y0252432D01*
X0239491Y0252583D01*
X0239525Y0252733D01*
X0239562Y0252881D01*
X0239603Y0253029D01*
X0239648Y0253175D01*
X0239697Y0253321D01*
X0239750Y0253465D01*
X0239806Y0253607D01*
X0239866Y0253748D01*
X0239930Y0253888D01*
X0239997Y0254026D01*
X0240068Y0254162D01*
X0240143Y0254296D01*
X0240220Y0254428D01*
X0240302Y0254558D01*
X0240386Y0254686D01*
X0240474Y0254812D01*
X0240565Y0254935D01*
X0240659Y0255056D01*
X0240757Y0255174D01*
X0240857Y0255290D01*
X0240961Y0255403D01*
X0241067Y0255514D01*
X0241176Y0255622D01*
X0241288Y0255727D01*
X0241402Y0255828D01*
X0241520Y0255927D01*
X0241639Y0256023D01*
X0241761Y0256116D01*
X0241886Y0256205D01*
X0242013Y0256292D01*
X0242142Y0256374D01*
X0242273Y0256454D01*
X0242406Y0256530D01*
X0242541Y0256603D01*
X0242678Y0256672D01*
X0242817Y0256737D01*
X0242957Y0256799D01*
X0243099Y0256857D01*
X0243242Y0256912D01*
X0243387Y0256963D01*
X0243533Y0257010D01*
X0243680Y0257053D01*
X0243828Y0257092D01*
X0243977Y0257128D01*
X0244127Y0257159D01*
X0244278Y0257187D01*
X0244429Y0257211D01*
X0244582Y0257231D01*
X0244734Y0257247D01*
X0244887Y0257259D01*
X0245040Y0257267D01*
X0245193Y0257271D01*
X0245347Y0257271D01*
X0245500Y0257267D01*
X0245653Y0257259D01*
X0245806Y0257247D01*
X0245958Y0257231D01*
X0246111Y0257211D01*
X0246262Y0257187D01*
X0246413Y0257159D01*
X0246563Y0257128D01*
X0246712Y0257092D01*
X0246860Y0257053D01*
X0247007Y0257010D01*
X0247153Y0256963D01*
X0247298Y0256912D01*
X0247441Y0256857D01*
X0247583Y0256799D01*
X0247723Y0256737D01*
X0247862Y0256672D01*
X0247999Y0256603D01*
X0248134Y0256530D01*
X0248267Y0256454D01*
X0248398Y0256374D01*
X0248527Y0256292D01*
X0248654Y0256205D01*
X0248779Y0256116D01*
X0248901Y0256023D01*
X0249020Y0255927D01*
X0249138Y0255828D01*
X0249252Y0255727D01*
X0249364Y0255622D01*
X0249473Y0255514D01*
X0249579Y0255403D01*
X0249683Y0255290D01*
X0249783Y0255174D01*
X0249881Y0255056D01*
X0249975Y0254935D01*
X0250066Y0254812D01*
X0250154Y0254686D01*
X0250238Y0254558D01*
X0250320Y0254428D01*
X0250397Y0254296D01*
X0250472Y0254162D01*
X0250543Y0254026D01*
X0250610Y0253888D01*
X0250674Y0253748D01*
X0250734Y0253607D01*
X0250790Y0253465D01*
X0250843Y0253321D01*
X0250892Y0253175D01*
X0250937Y0253029D01*
X0250978Y0252881D01*
X0251015Y0252733D01*
X0251049Y0252583D01*
X0251079Y0252432D01*
X0251104Y0252281D01*
X0251126Y0252130D01*
X0251144Y0251977D01*
X0251158Y0251825D01*
X0251168Y0251672D01*
X0251174Y0251518D01*
X0251176Y0251365D01*
X0251174Y0251212D01*
X0251168Y0251058D01*
X0251158Y0250905D01*
X0251144Y0250753D01*
X0251126Y0250600D01*
X0251104Y0250449D01*
X0251079Y0250298D01*
X0251049Y0250147D01*
X0251015Y0249997D01*
X0250978Y0249849D01*
X0250937Y0249701D01*
X0250892Y0249555D01*
X0250843Y0249409D01*
X0250790Y0249265D01*
X0250734Y0249123D01*
X0250674Y0248982D01*
X0250610Y0248842D01*
X0250543Y0248704D01*
X0250472Y0248568D01*
X0250397Y0248434D01*
X0250320Y0248302D01*
X0250238Y0248172D01*
X0250154Y0248044D01*
X0250066Y0247918D01*
X0249975Y0247795D01*
X0249881Y0247674D01*
X0249783Y0247556D01*
X0249683Y0247440D01*
X0249579Y0247327D01*
X0249473Y0247216D01*
X0249364Y0247108D01*
X0249252Y0247003D01*
X0249138Y0246902D01*
X0249020Y0246803D01*
X0248901Y0246707D01*
X0248779Y0246614D01*
X0248654Y0246525D01*
X0248527Y0246438D01*
X0248398Y0246356D01*
X0248267Y0246276D01*
X0248134Y0246200D01*
X0247999Y0246127D01*
X0247862Y0246058D01*
X0247723Y0245993D01*
X0247583Y0245931D01*
X0247441Y0245873D01*
X0247298Y0245818D01*
X0247153Y0245767D01*
X0247007Y0245720D01*
X0246860Y0245677D01*
X0246712Y0245638D01*
X0246563Y0245602D01*
X0246413Y0245571D01*
X0246262Y0245543D01*
X0246111Y0245519D01*
X0245958Y0245499D01*
X0245806Y0245483D01*
X0245653Y0245471D01*
X0245500Y0245463D01*
X0245347Y0245459D01*
X0245193Y0245459D01*
X0245040Y0245463D01*
X0244887Y0245471D01*
X0244734Y0245483D01*
X0244582Y0245499D01*
X0244429Y0245519D01*
X0244278Y0245543D01*
X0244127Y0245571D01*
X0243977Y0245602D01*
X0243828Y0245638D01*
X0243680Y0245677D01*
X0243533Y0245720D01*
X0243387Y0245767D01*
X0243242Y0245818D01*
X0243099Y0245873D01*
X0242957Y0245931D01*
X0242817Y0245993D01*
X0242678Y0246058D01*
X0242541Y0246127D01*
X0242406Y0246200D01*
X0242273Y0246276D01*
X0242142Y0246356D01*
X0242013Y0246438D01*
X0241886Y0246525D01*
X0241761Y0246614D01*
X0241639Y0246707D01*
X0241520Y0246803D01*
X0241402Y0246902D01*
X0241288Y0247003D01*
X0241176Y0247108D01*
X0241067Y0247216D01*
X0240961Y0247327D01*
X0240857Y0247440D01*
X0240757Y0247556D01*
X0240659Y0247674D01*
X0240565Y0247795D01*
X0240474Y0247918D01*
X0240386Y0248044D01*
X0240302Y0248172D01*
X0240220Y0248302D01*
X0240143Y0248434D01*
X0240068Y0248568D01*
X0239997Y0248704D01*
X0239930Y0248842D01*
X0239866Y0248982D01*
X0239806Y0249123D01*
X0239750Y0249265D01*
X0239697Y0249409D01*
X0239648Y0249555D01*
X0239603Y0249701D01*
X0239562Y0249849D01*
X0239525Y0249997D01*
X0239491Y0250147D01*
X0239461Y0250298D01*
X0239436Y0250449D01*
X0239414Y0250600D01*
X0239396Y0250753D01*
X0239382Y0250905D01*
X0239372Y0251058D01*
X0239366Y0251212D01*
X0239364Y0251365D01*
X0239364Y0058446D02*
X0239366Y0058599D01*
X0239372Y0058753D01*
X0239382Y0058906D01*
X0239396Y0059058D01*
X0239414Y0059211D01*
X0239436Y0059362D01*
X0239461Y0059513D01*
X0239491Y0059664D01*
X0239525Y0059814D01*
X0239562Y0059962D01*
X0239603Y0060110D01*
X0239648Y0060256D01*
X0239697Y0060402D01*
X0239750Y0060546D01*
X0239806Y0060688D01*
X0239866Y0060829D01*
X0239930Y0060969D01*
X0239997Y0061107D01*
X0240068Y0061243D01*
X0240143Y0061377D01*
X0240220Y0061509D01*
X0240302Y0061639D01*
X0240386Y0061767D01*
X0240474Y0061893D01*
X0240565Y0062016D01*
X0240659Y0062137D01*
X0240757Y0062255D01*
X0240857Y0062371D01*
X0240961Y0062484D01*
X0241067Y0062595D01*
X0241176Y0062703D01*
X0241288Y0062808D01*
X0241402Y0062909D01*
X0241520Y0063008D01*
X0241639Y0063104D01*
X0241761Y0063197D01*
X0241886Y0063286D01*
X0242013Y0063373D01*
X0242142Y0063455D01*
X0242273Y0063535D01*
X0242406Y0063611D01*
X0242541Y0063684D01*
X0242678Y0063753D01*
X0242817Y0063818D01*
X0242957Y0063880D01*
X0243099Y0063938D01*
X0243242Y0063993D01*
X0243387Y0064044D01*
X0243533Y0064091D01*
X0243680Y0064134D01*
X0243828Y0064173D01*
X0243977Y0064209D01*
X0244127Y0064240D01*
X0244278Y0064268D01*
X0244429Y0064292D01*
X0244582Y0064312D01*
X0244734Y0064328D01*
X0244887Y0064340D01*
X0245040Y0064348D01*
X0245193Y0064352D01*
X0245347Y0064352D01*
X0245500Y0064348D01*
X0245653Y0064340D01*
X0245806Y0064328D01*
X0245958Y0064312D01*
X0246111Y0064292D01*
X0246262Y0064268D01*
X0246413Y0064240D01*
X0246563Y0064209D01*
X0246712Y0064173D01*
X0246860Y0064134D01*
X0247007Y0064091D01*
X0247153Y0064044D01*
X0247298Y0063993D01*
X0247441Y0063938D01*
X0247583Y0063880D01*
X0247723Y0063818D01*
X0247862Y0063753D01*
X0247999Y0063684D01*
X0248134Y0063611D01*
X0248267Y0063535D01*
X0248398Y0063455D01*
X0248527Y0063373D01*
X0248654Y0063286D01*
X0248779Y0063197D01*
X0248901Y0063104D01*
X0249020Y0063008D01*
X0249138Y0062909D01*
X0249252Y0062808D01*
X0249364Y0062703D01*
X0249473Y0062595D01*
X0249579Y0062484D01*
X0249683Y0062371D01*
X0249783Y0062255D01*
X0249881Y0062137D01*
X0249975Y0062016D01*
X0250066Y0061893D01*
X0250154Y0061767D01*
X0250238Y0061639D01*
X0250320Y0061509D01*
X0250397Y0061377D01*
X0250472Y0061243D01*
X0250543Y0061107D01*
X0250610Y0060969D01*
X0250674Y0060829D01*
X0250734Y0060688D01*
X0250790Y0060546D01*
X0250843Y0060402D01*
X0250892Y0060256D01*
X0250937Y0060110D01*
X0250978Y0059962D01*
X0251015Y0059814D01*
X0251049Y0059664D01*
X0251079Y0059513D01*
X0251104Y0059362D01*
X0251126Y0059211D01*
X0251144Y0059058D01*
X0251158Y0058906D01*
X0251168Y0058753D01*
X0251174Y0058599D01*
X0251176Y0058446D01*
X0251174Y0058293D01*
X0251168Y0058139D01*
X0251158Y0057986D01*
X0251144Y0057834D01*
X0251126Y0057681D01*
X0251104Y0057530D01*
X0251079Y0057379D01*
X0251049Y0057228D01*
X0251015Y0057078D01*
X0250978Y0056930D01*
X0250937Y0056782D01*
X0250892Y0056636D01*
X0250843Y0056490D01*
X0250790Y0056346D01*
X0250734Y0056204D01*
X0250674Y0056063D01*
X0250610Y0055923D01*
X0250543Y0055785D01*
X0250472Y0055649D01*
X0250397Y0055515D01*
X0250320Y0055383D01*
X0250238Y0055253D01*
X0250154Y0055125D01*
X0250066Y0054999D01*
X0249975Y0054876D01*
X0249881Y0054755D01*
X0249783Y0054637D01*
X0249683Y0054521D01*
X0249579Y0054408D01*
X0249473Y0054297D01*
X0249364Y0054189D01*
X0249252Y0054084D01*
X0249138Y0053983D01*
X0249020Y0053884D01*
X0248901Y0053788D01*
X0248779Y0053695D01*
X0248654Y0053606D01*
X0248527Y0053519D01*
X0248398Y0053437D01*
X0248267Y0053357D01*
X0248134Y0053281D01*
X0247999Y0053208D01*
X0247862Y0053139D01*
X0247723Y0053074D01*
X0247583Y0053012D01*
X0247441Y0052954D01*
X0247298Y0052899D01*
X0247153Y0052848D01*
X0247007Y0052801D01*
X0246860Y0052758D01*
X0246712Y0052719D01*
X0246563Y0052683D01*
X0246413Y0052652D01*
X0246262Y0052624D01*
X0246111Y0052600D01*
X0245958Y0052580D01*
X0245806Y0052564D01*
X0245653Y0052552D01*
X0245500Y0052544D01*
X0245347Y0052540D01*
X0245193Y0052540D01*
X0245040Y0052544D01*
X0244887Y0052552D01*
X0244734Y0052564D01*
X0244582Y0052580D01*
X0244429Y0052600D01*
X0244278Y0052624D01*
X0244127Y0052652D01*
X0243977Y0052683D01*
X0243828Y0052719D01*
X0243680Y0052758D01*
X0243533Y0052801D01*
X0243387Y0052848D01*
X0243242Y0052899D01*
X0243099Y0052954D01*
X0242957Y0053012D01*
X0242817Y0053074D01*
X0242678Y0053139D01*
X0242541Y0053208D01*
X0242406Y0053281D01*
X0242273Y0053357D01*
X0242142Y0053437D01*
X0242013Y0053519D01*
X0241886Y0053606D01*
X0241761Y0053695D01*
X0241639Y0053788D01*
X0241520Y0053884D01*
X0241402Y0053983D01*
X0241288Y0054084D01*
X0241176Y0054189D01*
X0241067Y0054297D01*
X0240961Y0054408D01*
X0240857Y0054521D01*
X0240757Y0054637D01*
X0240659Y0054755D01*
X0240565Y0054876D01*
X0240474Y0054999D01*
X0240386Y0055125D01*
X0240302Y0055253D01*
X0240220Y0055383D01*
X0240143Y0055515D01*
X0240068Y0055649D01*
X0239997Y0055785D01*
X0239930Y0055923D01*
X0239866Y0056063D01*
X0239806Y0056204D01*
X0239750Y0056346D01*
X0239697Y0056490D01*
X0239648Y0056636D01*
X0239603Y0056782D01*
X0239562Y0056930D01*
X0239525Y0057078D01*
X0239491Y0057228D01*
X0239461Y0057379D01*
X0239436Y0057530D01*
X0239414Y0057681D01*
X0239396Y0057834D01*
X0239382Y0057986D01*
X0239372Y0058139D01*
X0239366Y0058293D01*
X0239364Y0058446D01*
M02*
