%
M48
M72
T01C0.0236
T02C0.0276
T03C0.0320
T04C0.0394
%
T01
X7292Y9555
X2667Y9930
X1792Y12805
X7167Y21492
X6109Y21805
X5542Y22992
X9354Y23367
X13604Y23367
X13417Y19555
X15542Y19492
X17604Y20805
X14245Y6819
T02
X10307Y21142
X9307Y21142
T03
X22700Y21344
X23700Y21344
X23700Y19844
X22700Y19844
X22700Y22844
X23700Y22844
T04
X22603Y24624
X22603Y25624
X21603Y25624
X21603Y24624
X20603Y24624
X20603Y25624
X19603Y25624
X19603Y24624
X18603Y24624
X17603Y24624
X17603Y25624
X18603Y25624
X16603Y25624
X16603Y24624
X15603Y24624
X15603Y25624
X14603Y25624
X14603Y24624
X13603Y24624
X12603Y24624
X12603Y25624
X13603Y25624
X11603Y25624
X11603Y24624
X10603Y24624
X10603Y25624
X9603Y25624
X9603Y24624
X8603Y24624
X8603Y25624
X7603Y25624
X7603Y24624
X6603Y24624
X6603Y25624
X5603Y25624
X5603Y24624
X4603Y24624
X4603Y25624
X3603Y25624
X3603Y24624
X3652Y21829
X4952Y19860
X6133Y21829
X14604Y5305
X15604Y5305
X16604Y5305
X17604Y5305
M30
